<svg width="1080" height="1705" viewBox="0 0 1080 1705" fill="none" xmlns="http://www.w3.org/2000/svg">
<path  d="M528.442 1393.86C528.473 1399.35 524.053 1403.83 518.573 1403.7C477.039 1402.73 436 1394.19 397.477 1378.48C355.889 1361.53 318.048 1336.55 286.114 1304.97C254.18 1273.38 228.779 1235.82 211.362 1194.43C193.945 1153.03 184.851 1108.61 184.602 1063.7C184.352 1018.78 192.951 974.263 209.907 932.675C226.863 891.087 251.845 853.245 283.426 821.312C315.006 789.378 352.568 763.977 393.965 746.56C432.311 730.426 473.252 721.435 514.773 719.999C520.251 719.809 524.721 724.243 524.751 729.724C524.781 735.205 520.361 739.657 514.884 739.856C475.97 741.272 437.605 749.733 401.662 764.855C362.668 781.262 327.287 805.189 297.539 835.269C267.791 865.349 244.259 900.994 228.287 940.169C212.315 979.343 204.215 1021.28 204.45 1063.58C204.686 1105.89 213.251 1147.73 229.658 1186.73C246.064 1225.72 269.991 1261.1 300.071 1290.85C330.151 1320.6 365.796 1344.13 404.971 1360.1C441.08 1374.83 479.536 1382.86 518.463 1383.84C523.943 1383.98 528.412 1388.38 528.442 1393.86Z" fill="#BDD3FF"/>
<path d="M550.032 730.321C550.026 724.835 554.47 720.368 559.953 720.522C601.48 721.684 642.478 730.403 680.927 746.281C722.439 763.423 760.168 788.574 791.959 820.298C823.751 852.021 848.983 889.696 866.215 931.171C883.446 972.646 892.34 1017.11 892.389 1062.02C892.437 1106.93 883.638 1151.41 866.496 1192.93C849.353 1234.44 824.202 1272.17 792.479 1303.96C760.755 1335.75 723.08 1360.98 681.606 1378.21C643.19 1394.17 602.212 1402.98 560.687 1404.23C555.204 1404.4 550.751 1399.94 550.745 1394.46C550.739 1388.97 555.183 1384.53 560.666 1384.36C599.581 1383.12 637.978 1374.83 673.984 1359.87C713.05 1343.64 748.536 1319.87 778.417 1289.93C808.298 1259.98 831.988 1224.44 848.135 1185.34C864.282 1146.24 872.569 1104.35 872.523 1062.04C872.478 1019.74 864.101 977.859 847.87 938.793C831.639 899.727 807.873 864.241 777.928 834.36C747.983 804.479 712.445 780.789 673.345 764.642C637.307 749.76 598.892 741.554 559.974 740.396C554.491 740.233 550.038 735.806 550.032 730.321Z" fill="#BDD3FF"/>
</svg>
