<svg width="1080" height="1705" viewBox="0 0 1080 1705" fill="none" xmlns="http://www.w3.org/2000/svg">
<path d="M94.5 219.25L83 241.4V254H77.3V241.4L65.75 219.25H72.1L80.15 236.3L88.2 219.25H94.5ZM110.973 254.45C108.373 254.45 106.023 253.867 103.923 252.7C101.823 251.5 100.173 249.833 98.9734 247.7C97.7734 245.533 97.1734 243.033 97.1734 240.2C97.1734 237.4 97.7901 234.917 99.0234 232.75C100.257 230.583 101.94 228.917 104.073 227.75C106.207 226.583 108.59 226 111.223 226C113.857 226 116.24 226.583 118.373 227.75C120.507 228.917 122.19 230.583 123.423 232.75C124.657 234.917 125.273 237.4 125.273 240.2C125.273 243 124.64 245.483 123.373 247.65C122.107 249.817 120.373 251.5 118.173 252.7C116.007 253.867 113.607 254.45 110.973 254.45ZM110.973 249.5C112.44 249.5 113.807 249.15 115.073 248.45C116.373 247.75 117.423 246.7 118.223 245.3C119.023 243.9 119.423 242.2 119.423 240.2C119.423 238.2 119.04 236.517 118.273 235.15C117.507 233.75 116.49 232.7 115.223 232C113.957 231.3 112.59 230.95 111.123 230.95C109.657 230.95 108.29 231.3 107.023 232C105.79 232.7 104.807 233.75 104.073 235.15C103.34 236.517 102.973 238.2 102.973 240.2C102.973 243.167 103.723 245.467 105.223 247.1C106.757 248.7 108.673 249.5 110.973 249.5ZM155.858 226.45V254H150.158V250.75C149.258 251.883 148.075 252.783 146.608 253.45C145.175 254.083 143.642 254.4 142.008 254.4C139.842 254.4 137.892 253.95 136.158 253.05C134.458 252.15 133.108 250.817 132.108 249.05C131.142 247.283 130.658 245.15 130.658 242.65V226.45H136.308V241.8C136.308 244.267 136.925 246.167 138.158 247.5C139.392 248.8 141.075 249.45 143.208 249.45C145.342 249.45 147.025 248.8 148.258 247.5C149.525 246.167 150.158 244.267 150.158 241.8V226.45H155.858ZM170.029 231.1V246.35C170.029 247.383 170.262 248.133 170.729 248.6C171.229 249.033 172.062 249.25 173.229 249.25H176.729V254H172.229C169.662 254 167.696 253.4 166.329 252.2C164.962 251 164.279 249.05 164.279 246.35V231.1H161.029V226.45H164.279V219.6H170.029V226.45H176.729V231.1H170.029ZM206.932 226.45V254H201.232V250.75C200.332 251.883 199.149 252.783 197.682 253.45C196.249 254.083 194.716 254.4 193.082 254.4C190.916 254.4 188.966 253.95 187.232 253.05C185.532 252.15 184.182 250.817 183.182 249.05C182.216 247.283 181.732 245.15 181.732 242.65V226.45H187.382V241.8C187.382 244.267 187.999 246.167 189.232 247.5C190.466 248.8 192.149 249.45 194.282 249.45C196.416 249.45 198.099 248.8 199.332 247.5C200.599 246.167 201.232 244.267 201.232 241.8V226.45H206.932ZM220.153 230.55C221.12 229.217 222.436 228.133 224.103 227.3C225.803 226.433 227.686 226 229.753 226C232.186 226 234.386 226.583 236.353 227.75C238.32 228.917 239.87 230.583 241.003 232.75C242.136 234.883 242.703 237.333 242.703 240.1C242.703 242.867 242.136 245.35 241.003 247.55C239.87 249.717 238.303 251.417 236.303 252.65C234.336 253.85 232.153 254.45 229.753 254.45C227.62 254.45 225.72 254.033 224.053 253.2C222.42 252.367 221.12 251.3 220.153 250V254H214.453V217H220.153V230.55ZM236.903 240.1C236.903 238.2 236.503 236.567 235.703 235.2C234.936 233.8 233.903 232.75 232.603 232.05C231.336 231.317 229.97 230.95 228.503 230.95C227.07 230.95 225.703 231.317 224.403 232.05C223.136 232.783 222.103 233.85 221.303 235.25C220.536 236.65 220.153 238.3 220.153 240.2C220.153 242.1 220.536 243.767 221.303 245.2C222.103 246.6 223.136 247.667 224.403 248.4C225.703 249.133 227.07 249.5 228.503 249.5C229.97 249.5 231.336 249.133 232.603 248.4C233.903 247.633 234.936 246.533 235.703 245.1C236.503 243.667 236.903 242 236.903 240.1ZM273.59 239.55C273.59 240.583 273.523 241.517 273.39 242.35H252.34C252.507 244.55 253.323 246.317 254.79 247.65C256.257 248.983 258.057 249.65 260.19 249.65C263.257 249.65 265.423 248.367 266.69 245.8H272.84C272.007 248.333 270.49 250.417 268.29 252.05C266.123 253.65 263.423 254.45 260.19 254.45C257.557 254.45 255.19 253.867 253.09 252.7C251.023 251.5 249.39 249.833 248.19 247.7C247.023 245.533 246.44 243.033 246.44 240.2C246.44 237.367 247.007 234.883 248.14 232.75C249.307 230.583 250.923 228.917 252.99 227.75C255.09 226.583 257.49 226 260.19 226C262.79 226 265.107 226.567 267.14 227.7C269.173 228.833 270.757 230.433 271.89 232.5C273.023 234.533 273.59 236.883 273.59 239.55ZM267.64 237.75C267.607 235.65 266.857 233.967 265.39 232.7C263.923 231.433 262.107 230.8 259.94 230.8C257.973 230.8 256.29 231.433 254.89 232.7C253.49 233.933 252.657 235.617 252.39 237.75H267.64ZM290.288 236.55C290.288 233.15 291.071 230.1 292.638 227.4C294.238 224.7 296.388 222.6 299.088 221.1C301.821 219.567 304.804 218.8 308.038 218.8C311.738 218.8 315.021 219.717 317.888 221.55C320.788 223.35 322.888 225.917 324.188 229.25H317.338C316.438 227.417 315.188 226.05 313.588 225.15C311.988 224.25 310.138 223.8 308.038 223.8C305.738 223.8 303.688 224.317 301.888 225.35C300.088 226.383 298.671 227.867 297.638 229.8C296.638 231.733 296.138 233.983 296.138 236.55C296.138 239.117 296.638 241.367 297.638 243.3C298.671 245.233 300.088 246.733 301.888 247.8C303.688 248.833 305.738 249.35 308.038 249.35C310.138 249.35 311.988 248.9 313.588 248C315.188 247.1 316.438 245.733 317.338 243.9H324.188C322.888 247.233 320.788 249.8 317.888 251.6C315.021 253.4 311.738 254.3 308.038 254.3C304.771 254.3 301.788 253.55 299.088 252.05C296.388 250.517 294.238 248.4 292.638 245.7C291.071 243 290.288 239.95 290.288 236.55ZM328.959 240.1C328.959 237.333 329.526 234.883 330.659 232.75C331.826 230.617 333.393 228.967 335.359 227.8C337.359 226.6 339.559 226 341.959 226C344.126 226 346.009 226.433 347.609 227.3C349.243 228.133 350.543 229.183 351.509 230.45V226.45H357.259V254H351.509V249.9C350.543 251.2 349.226 252.283 347.559 253.15C345.893 254.017 343.993 254.45 341.859 254.45C339.493 254.45 337.326 253.85 335.359 252.65C333.393 251.417 331.826 249.717 330.659 247.55C329.526 245.35 328.959 242.867 328.959 240.1ZM351.509 240.2C351.509 238.3 351.109 236.65 350.309 235.25C349.543 233.85 348.526 232.783 347.259 232.05C345.993 231.317 344.626 230.95 343.159 230.95C341.693 230.95 340.326 231.317 339.059 232.05C337.793 232.75 336.759 233.8 335.959 235.2C335.193 236.567 334.809 238.2 334.809 240.1C334.809 242 335.193 243.667 335.959 245.1C336.759 246.533 337.793 247.633 339.059 248.4C340.359 249.133 341.726 249.5 343.159 249.5C344.626 249.5 345.993 249.133 347.259 248.4C348.526 247.667 349.543 246.6 350.309 245.2C351.109 243.767 351.509 242.1 351.509 240.2ZM371.396 231.1V246.35C371.396 247.383 371.629 248.133 372.096 248.6C372.596 249.033 373.429 249.25 374.596 249.25H378.096V254H373.596C371.029 254 369.063 253.4 367.696 252.2C366.329 251 365.646 249.05 365.646 246.35V231.1H362.396V226.45H365.646V219.6H371.396V226.45H378.096V231.1H371.396ZM408.6 239.55C408.6 240.583 408.533 241.517 408.4 242.35H387.35C387.516 244.55 388.333 246.317 389.8 247.65C391.266 248.983 393.066 249.65 395.2 249.65C398.266 249.65 400.433 248.367 401.7 245.8H407.85C407.016 248.333 405.5 250.417 403.3 252.05C401.133 253.65 398.433 254.45 395.2 254.45C392.566 254.45 390.2 253.867 388.1 252.7C386.033 251.5 384.4 249.833 383.2 247.7C382.033 245.533 381.45 243.033 381.45 240.2C381.45 237.367 382.016 234.883 383.15 232.75C384.316 230.583 385.933 228.917 388 227.75C390.1 226.583 392.5 226 395.2 226C397.8 226 400.116 226.567 402.15 227.7C404.183 228.833 405.766 230.433 406.9 232.5C408.033 234.533 408.6 236.883 408.6 239.55ZM402.65 237.75C402.616 235.65 401.866 233.967 400.4 232.7C398.933 231.433 397.116 230.8 394.95 230.8C392.983 230.8 391.3 231.433 389.9 232.7C388.5 233.933 387.666 235.617 387.4 237.75H402.65ZM425.309 226C427.442 226 429.326 226.433 430.959 227.3C432.626 228.133 433.926 229.183 434.859 230.45V226.45H440.609V254.45C440.609 256.983 440.076 259.233 439.009 261.2C437.942 263.2 436.392 264.767 434.359 265.9C432.359 267.033 429.959 267.6 427.159 267.6C423.426 267.6 420.326 266.717 417.859 264.95C415.392 263.217 413.992 260.85 413.659 257.85H419.309C419.742 259.283 420.659 260.433 422.059 261.3C423.492 262.2 425.192 262.65 427.159 262.65C429.459 262.65 431.309 261.95 432.709 260.55C434.142 259.15 434.859 257.117 434.859 254.45V249.85C433.892 251.15 432.576 252.25 430.909 253.15C429.276 254.017 427.409 254.45 425.309 254.45C422.909 254.45 420.709 253.85 418.709 252.65C416.742 251.417 415.176 249.717 414.009 247.55C412.876 245.35 412.309 242.867 412.309 240.1C412.309 237.333 412.876 234.883 414.009 232.75C415.176 230.617 416.742 228.967 418.709 227.8C420.709 226.6 422.909 226 425.309 226ZM434.859 240.2C434.859 238.3 434.459 236.65 433.659 235.25C432.892 233.85 431.876 232.783 430.609 232.05C429.342 231.317 427.976 230.95 426.509 230.95C425.042 230.95 423.676 231.317 422.409 232.05C421.142 232.75 420.109 233.8 419.309 235.2C418.542 236.567 418.159 238.2 418.159 240.1C418.159 242 418.542 243.667 419.309 245.1C420.109 246.533 421.142 247.633 422.409 248.4C423.709 249.133 425.076 249.5 426.509 249.5C427.976 249.5 429.342 249.133 430.609 248.4C431.876 247.667 432.892 246.6 433.659 245.2C434.459 243.767 434.859 242.1 434.859 240.2ZM460.046 254.45C457.446 254.45 455.096 253.867 452.996 252.7C450.896 251.5 449.246 249.833 448.046 247.7C446.846 245.533 446.246 243.033 446.246 240.2C446.246 237.4 446.862 234.917 448.096 232.75C449.329 230.583 451.012 228.917 453.146 227.75C455.279 226.583 457.662 226 460.296 226C462.929 226 465.312 226.583 467.446 227.75C469.579 228.917 471.262 230.583 472.496 232.75C473.729 234.917 474.346 237.4 474.346 240.2C474.346 243 473.712 245.483 472.446 247.65C471.179 249.817 469.446 251.5 467.246 252.7C465.079 253.867 462.679 254.45 460.046 254.45ZM460.046 249.5C461.512 249.5 462.879 249.15 464.146 248.45C465.446 247.75 466.496 246.7 467.296 245.3C468.096 243.9 468.496 242.2 468.496 240.2C468.496 238.2 468.112 236.517 467.346 235.15C466.579 233.75 465.562 232.7 464.296 232C463.029 231.3 461.662 230.95 460.196 230.95C458.729 230.95 457.362 231.3 456.096 232C454.862 232.7 453.879 233.75 453.146 235.15C452.412 236.517 452.046 238.2 452.046 240.2C452.046 243.167 452.796 245.467 454.296 247.1C455.829 248.7 457.746 249.5 460.046 249.5ZM485.68 230.45C486.514 229.05 487.614 227.967 488.98 227.2C490.38 226.4 492.03 226 493.93 226V231.9H492.48C490.247 231.9 488.547 232.467 487.38 233.6C486.247 234.733 485.68 236.7 485.68 239.5V254H479.98V226.45H485.68V230.45ZM502.07 222.8C501.037 222.8 500.17 222.45 499.47 221.75C498.77 221.05 498.42 220.183 498.42 219.15C498.42 218.117 498.77 217.25 499.47 216.55C500.17 215.85 501.037 215.5 502.07 215.5C503.07 215.5 503.92 215.85 504.62 216.55C505.32 217.25 505.67 218.117 505.67 219.15C505.67 220.183 505.32 221.05 504.62 221.75C503.92 222.45 503.07 222.8 502.07 222.8ZM504.87 226.45V254H499.17V226.45H504.87ZM537.604 239.55C537.604 240.583 537.537 241.517 537.404 242.35H516.354C516.52 244.55 517.337 246.317 518.804 247.65C520.27 248.983 522.07 249.65 524.204 249.65C527.27 249.65 529.437 248.367 530.704 245.8H536.854C536.02 248.333 534.504 250.417 532.304 252.05C530.137 253.65 527.437 254.45 524.204 254.45C521.57 254.45 519.204 253.867 517.104 252.7C515.037 251.5 513.404 249.833 512.204 247.7C511.037 245.533 510.454 243.033 510.454 240.2C510.454 237.367 511.02 234.883 512.154 232.75C513.32 230.583 514.937 228.917 517.004 227.75C519.104 226.583 521.504 226 524.204 226C526.804 226 529.12 226.567 531.154 227.7C533.187 228.833 534.77 230.433 535.904 232.5C537.037 234.533 537.604 236.883 537.604 239.55ZM531.654 237.75C531.62 235.65 530.87 233.967 529.404 232.7C527.937 231.433 526.12 230.8 523.954 230.8C521.987 230.8 520.304 231.433 518.904 232.7C517.504 233.933 516.67 235.617 516.404 237.75H531.654ZM553.213 254.45C551.046 254.45 549.096 254.067 547.363 253.3C545.663 252.5 544.313 251.433 543.313 250.1C542.313 248.733 541.78 247.217 541.713 245.55H547.613C547.713 246.717 548.263 247.7 549.263 248.5C550.296 249.267 551.58 249.65 553.113 249.65C554.713 249.65 555.946 249.35 556.813 248.75C557.713 248.117 558.163 247.317 558.163 246.35C558.163 245.317 557.663 244.55 556.663 244.05C555.696 243.55 554.146 243 552.013 242.4C549.946 241.833 548.263 241.283 546.963 240.75C545.663 240.217 544.53 239.4 543.563 238.3C542.63 237.2 542.163 235.75 542.163 233.95C542.163 232.483 542.596 231.15 543.463 229.95C544.33 228.717 545.563 227.75 547.163 227.05C548.796 226.35 550.663 226 552.763 226C555.896 226 558.413 226.8 560.313 228.4C562.246 229.967 563.28 232.117 563.413 234.85H557.713C557.613 233.617 557.113 232.633 556.213 231.9C555.313 231.167 554.096 230.8 552.563 230.8C551.063 230.8 549.913 231.083 549.113 231.65C548.313 232.217 547.913 232.967 547.913 233.9C547.913 234.633 548.18 235.25 548.713 235.75C549.246 236.25 549.896 236.65 550.663 236.95C551.43 237.217 552.563 237.567 554.063 238C556.063 238.533 557.696 239.083 558.963 239.65C560.263 240.183 561.38 240.983 562.313 242.05C563.246 243.117 563.73 244.533 563.763 246.3C563.763 247.867 563.33 249.267 562.463 250.5C561.596 251.733 560.363 252.7 558.763 253.4C557.196 254.1 555.346 254.45 553.213 254.45Z" fill="#FEFEFE"/>
<path d="M77.264 319.294C75.332 319.294 73.624 318.958 72.14 318.286C70.684 317.614 69.536 316.676 68.696 315.472C67.856 314.268 67.408 312.924 67.352 311.44H70.46C70.6 312.868 71.23 314.128 72.35 315.22C73.47 316.284 75.108 316.816 77.264 316.816C79.252 316.816 80.82 316.312 81.968 315.304C83.144 314.268 83.732 312.966 83.732 311.398C83.732 310.138 83.41 309.13 82.766 308.374C82.122 307.59 81.324 307.016 80.372 306.652C79.42 306.26 78.104 305.84 76.424 305.392C74.464 304.86 72.91 304.342 71.762 303.838C70.614 303.334 69.634 302.55 68.822 301.486C68.01 300.422 67.604 298.98 67.604 297.16C67.604 295.648 67.996 294.304 68.78 293.128C69.564 291.924 70.67 290.986 72.098 290.314C73.526 289.642 75.164 289.306 77.012 289.306C79.728 289.306 81.912 289.978 83.564 291.322C85.244 292.638 86.21 294.346 86.462 296.446H83.27C83.074 295.242 82.416 294.178 81.296 293.254C80.176 292.302 78.664 291.826 76.76 291.826C74.996 291.826 73.526 292.302 72.35 293.254C71.174 294.178 70.586 295.452 70.586 297.076C70.586 298.308 70.908 299.302 71.552 300.058C72.196 300.814 72.994 301.388 73.946 301.78C74.926 302.172 76.242 302.592 77.894 303.04C79.798 303.572 81.338 304.104 82.514 304.636C83.69 305.14 84.684 305.924 85.496 306.988C86.308 308.052 86.714 309.48 86.714 311.272C86.714 312.644 86.35 313.946 85.622 315.178C84.894 316.41 83.816 317.404 82.388 318.16C80.96 318.916 79.252 319.294 77.264 319.294ZM113.143 306.358C113.143 307.366 113.115 308.136 113.059 308.668H94.0332C94.1172 310.404 94.5372 311.888 95.2932 313.12C96.0492 314.352 97.0432 315.29 98.2752 315.934C99.5072 316.55 100.851 316.858 102.307 316.858C104.211 316.858 105.807 316.396 107.095 315.472C108.411 314.548 109.279 313.302 109.699 311.734H112.807C112.247 313.974 111.043 315.808 109.195 317.236C107.375 318.636 105.079 319.336 102.307 319.336C100.151 319.336 98.2192 318.86 96.5112 317.908C94.8032 316.928 93.4592 315.556 92.4792 313.792C91.5272 312 91.0512 309.914 91.0512 307.534C91.0512 305.154 91.5272 303.068 92.4792 301.276C93.4312 299.484 94.7612 298.112 96.4692 297.16C98.1772 296.208 100.123 295.732 102.307 295.732C104.491 295.732 106.395 296.208 108.019 297.16C109.671 298.112 110.931 299.4 111.799 301.024C112.695 302.62 113.143 304.398 113.143 306.358ZM110.161 306.274C110.189 304.566 109.839 303.11 109.111 301.906C108.411 300.702 107.445 299.792 106.213 299.176C104.981 298.56 103.637 298.252 102.181 298.252C99.9972 298.252 98.1352 298.952 96.5952 300.352C95.0552 301.752 94.2012 303.726 94.0332 306.274H110.161ZM139.27 306.358C139.27 307.366 139.242 308.136 139.186 308.668H120.16C120.244 310.404 120.664 311.888 121.42 313.12C122.176 314.352 123.17 315.29 124.402 315.934C125.634 316.55 126.978 316.858 128.434 316.858C130.338 316.858 131.934 316.396 133.222 315.472C134.538 314.548 135.406 313.302 135.826 311.734H138.934C138.374 313.974 137.17 315.808 135.322 317.236C133.502 318.636 131.206 319.336 128.434 319.336C126.278 319.336 124.346 318.86 122.638 317.908C120.93 316.928 119.586 315.556 118.606 313.792C117.654 312 117.178 309.914 117.178 307.534C117.178 305.154 117.654 303.068 118.606 301.276C119.558 299.484 120.888 298.112 122.596 297.16C124.304 296.208 126.25 295.732 128.434 295.732C130.618 295.732 132.522 296.208 134.146 297.16C135.798 298.112 137.058 299.4 137.926 301.024C138.822 302.62 139.27 304.398 139.27 306.358ZM136.288 306.274C136.316 304.566 135.966 303.11 135.238 301.906C134.538 300.702 133.572 299.792 132.34 299.176C131.108 298.56 129.764 298.252 128.308 298.252C126.124 298.252 124.262 298.952 122.722 300.352C121.182 301.752 120.328 303.726 120.16 306.274H136.288ZM191.79 289.642L183.474 319H180.198L172.806 293.968L165.246 319L162.054 319.042L153.906 289.642H157.056L163.776 315.388L171.294 289.642H174.57L181.878 315.388L188.64 289.642H191.79ZM207.208 295.648C208.944 295.648 210.498 296.012 211.87 296.74C213.27 297.468 214.362 298.588 215.146 300.1C215.958 301.584 216.364 303.404 216.364 305.56V319H213.466V305.896C213.466 303.404 212.836 301.5 211.576 300.184C210.344 298.868 208.65 298.21 206.494 298.21C204.282 298.21 202.518 298.91 201.202 300.31C199.886 301.71 199.228 303.768 199.228 306.484V319H196.288V287.92H199.228V299.974C199.956 298.602 201.02 297.538 202.42 296.782C203.848 296.026 205.444 295.648 207.208 295.648ZM221.522 307.492C221.522 305.14 221.984 303.082 222.908 301.318C223.86 299.526 225.162 298.154 226.814 297.202C228.494 296.222 230.384 295.732 232.484 295.732C234.668 295.732 236.544 296.236 238.112 297.244C239.708 298.252 240.856 299.54 241.556 301.108V296.068H244.496V319H241.556V313.918C240.828 315.486 239.666 316.788 238.07 317.824C236.502 318.832 234.626 319.336 232.442 319.336C230.37 319.336 228.494 318.846 226.814 317.866C225.162 316.886 223.86 315.5 222.908 313.708C221.984 311.916 221.522 309.844 221.522 307.492ZM241.556 307.534C241.556 305.686 241.178 304.062 240.422 302.662C239.666 301.262 238.63 300.184 237.314 299.428C236.026 298.672 234.598 298.294 233.03 298.294C231.406 298.294 229.95 298.658 228.662 299.386C227.374 300.114 226.352 301.178 225.596 302.578C224.868 303.95 224.504 305.588 224.504 307.492C224.504 309.368 224.868 311.02 225.596 312.448C226.352 313.848 227.374 314.926 228.662 315.682C229.95 316.41 231.406 316.774 233.03 316.774C234.598 316.774 236.026 316.396 237.314 315.64C238.63 314.884 239.666 313.806 240.422 312.406C241.178 311.006 241.556 309.382 241.556 307.534ZM255.03 298.546V312.784C255.03 314.184 255.296 315.15 255.828 315.682C256.36 316.214 257.298 316.48 258.642 316.48H261.33V319H258.18C256.108 319 254.568 318.524 253.56 317.572C252.552 316.592 252.048 314.996 252.048 312.784V298.546H248.856V296.068H252.048V290.314H255.03V296.068H261.33V298.546H255.03ZM313.32 289.642L305.004 319H301.728L294.336 293.968L286.776 319L283.584 319.042L275.436 289.642H278.586L285.306 315.388L292.824 289.642H296.1L303.408 315.388L310.17 289.642H313.32ZM338.565 306.358C338.565 307.366 338.537 308.136 338.481 308.668H319.455C319.539 310.404 319.959 311.888 320.715 313.12C321.471 314.352 322.465 315.29 323.697 315.934C324.929 316.55 326.273 316.858 327.729 316.858C329.633 316.858 331.229 316.396 332.517 315.472C333.833 314.548 334.701 313.302 335.121 311.734H338.229C337.669 313.974 336.465 315.808 334.617 317.236C332.797 318.636 330.501 319.336 327.729 319.336C325.573 319.336 323.641 318.86 321.933 317.908C320.225 316.928 318.881 315.556 317.901 313.792C316.949 312 316.473 309.914 316.473 307.534C316.473 305.154 316.949 303.068 317.901 301.276C318.853 299.484 320.183 298.112 321.891 297.16C323.599 296.208 325.545 295.732 327.729 295.732C329.913 295.732 331.817 296.208 333.441 297.16C335.093 298.112 336.353 299.4 337.221 301.024C338.117 302.62 338.565 304.398 338.565 306.358ZM335.583 306.274C335.611 304.566 335.261 303.11 334.533 301.906C333.833 300.702 332.867 299.792 331.635 299.176C330.403 298.56 329.059 298.252 327.603 298.252C325.419 298.252 323.557 298.952 322.017 300.352C320.477 301.752 319.623 303.726 319.455 306.274H335.583ZM384.155 290.02V319H381.215V295.858L370.883 319H368.741L358.409 295.942V319H355.469V290.02H358.577L369.791 315.136L381.005 290.02H384.155ZM411.573 306.358C411.573 307.366 411.545 308.136 411.489 308.668H392.463C392.547 310.404 392.967 311.888 393.723 313.12C394.479 314.352 395.473 315.29 396.705 315.934C397.937 316.55 399.281 316.858 400.737 316.858C402.641 316.858 404.237 316.396 405.525 315.472C406.841 314.548 407.709 313.302 408.129 311.734H411.237C410.677 313.974 409.473 315.808 407.625 317.236C405.805 318.636 403.509 319.336 400.737 319.336C398.581 319.336 396.649 318.86 394.941 317.908C393.233 316.928 391.889 315.556 390.909 313.792C389.957 312 389.481 309.914 389.481 307.534C389.481 305.154 389.957 303.068 390.909 301.276C391.861 299.484 393.191 298.112 394.899 297.16C396.607 296.208 398.553 295.732 400.737 295.732C402.921 295.732 404.825 296.208 406.449 297.16C408.101 298.112 409.361 299.4 410.229 301.024C411.125 302.62 411.573 304.398 411.573 306.358ZM408.591 306.274C408.619 304.566 408.269 303.11 407.541 301.906C406.841 300.702 405.875 299.792 404.643 299.176C403.411 298.56 402.067 298.252 400.611 298.252C398.427 298.252 396.565 298.952 395.025 300.352C393.485 301.752 392.631 303.726 392.463 306.274H408.591ZM427.704 295.648C430.448 295.648 432.688 296.502 434.424 298.21C436.16 299.89 437.028 302.34 437.028 305.56V319H434.13V305.896C434.13 303.404 433.5 301.5 432.24 300.184C431.008 298.868 429.314 298.21 427.158 298.21C424.946 298.21 423.182 298.91 421.866 300.31C420.55 301.71 419.892 303.768 419.892 306.484V319H416.952V296.068H419.892V299.974C420.62 298.574 421.67 297.51 423.042 296.782C424.414 296.026 425.968 295.648 427.704 295.648ZM447.352 298.546V312.784C447.352 314.184 447.618 315.15 448.15 315.682C448.682 316.214 449.62 316.48 450.964 316.48H453.652V319H450.502C448.43 319 446.89 318.524 445.882 317.572C444.874 316.592 444.37 314.996 444.37 312.784V298.546H441.178V296.068H444.37V290.314H447.352V296.068H453.652V298.546H447.352ZM468.539 319.336C466.383 319.336 464.437 318.86 462.701 317.908C460.993 316.928 459.635 315.556 458.627 313.792C457.647 312 457.157 309.914 457.157 307.534C457.157 305.154 457.661 303.082 458.669 301.318C459.677 299.526 461.049 298.154 462.785 297.202C464.521 296.222 466.467 295.732 468.623 295.732C470.779 295.732 472.725 296.222 474.461 297.202C476.225 298.154 477.597 299.526 478.577 301.318C479.585 303.082 480.089 305.154 480.089 307.534C480.089 309.886 479.585 311.958 478.577 313.75C477.569 315.542 476.183 316.928 474.419 317.908C472.655 318.86 470.695 319.336 468.539 319.336ZM468.539 316.774C470.051 316.774 471.451 316.438 472.739 315.766C474.027 315.066 475.063 314.03 475.847 312.658C476.659 311.258 477.065 309.55 477.065 307.534C477.065 305.518 476.673 303.824 475.889 302.452C475.105 301.052 474.069 300.016 472.781 299.344C471.493 298.644 470.093 298.294 468.581 298.294C467.069 298.294 465.669 298.644 464.381 299.344C463.093 300.016 462.057 301.052 461.273 302.452C460.517 303.824 460.139 305.518 460.139 307.534C460.139 309.55 460.517 311.258 461.273 312.658C462.057 314.03 463.079 315.066 464.339 315.766C465.627 316.438 467.027 316.774 468.539 316.774ZM488.388 300.142C489.032 298.714 490.012 297.608 491.328 296.824C492.672 296.04 494.31 295.648 496.242 295.648V298.714H495.444C493.316 298.714 491.608 299.288 490.32 300.436C489.032 301.584 488.388 303.502 488.388 306.19V319H485.448V296.068H488.388V300.142ZM525.378 319.294C522.662 319.294 520.198 318.664 517.986 317.404C515.774 316.116 514.024 314.338 512.736 312.07C511.476 309.774 510.846 307.184 510.846 304.3C510.846 301.416 511.476 298.84 512.736 296.572C514.024 294.276 515.774 292.498 517.986 291.238C520.198 289.95 522.662 289.306 525.378 289.306C528.122 289.306 530.6 289.95 532.812 291.238C535.024 292.498 536.76 294.276 538.02 296.572C539.28 298.84 539.91 301.416 539.91 304.3C539.91 307.184 539.28 309.774 538.02 312.07C536.76 314.338 535.024 316.116 532.812 317.404C530.6 318.664 528.122 319.294 525.378 319.294ZM525.378 316.732C527.562 316.732 529.522 316.228 531.258 315.22C532.994 314.212 534.366 312.77 535.374 310.894C536.382 308.99 536.886 306.792 536.886 304.3C536.886 301.808 536.382 299.624 535.374 297.748C534.366 295.872 532.994 294.43 531.258 293.422C529.522 292.414 527.562 291.91 525.378 291.91C523.194 291.91 521.234 292.414 519.498 293.422C517.762 294.43 516.39 295.872 515.382 297.748C514.374 299.624 513.87 301.808 513.87 304.3C513.87 306.792 514.374 308.99 515.382 310.894C516.39 312.77 517.762 314.212 519.498 315.22C521.234 316.228 523.194 316.732 525.378 316.732ZM556.042 295.648C558.786 295.648 561.026 296.502 562.762 298.21C564.498 299.89 565.366 302.34 565.366 305.56V319H562.468V305.896C562.468 303.404 561.838 301.5 560.578 300.184C559.346 298.868 557.652 298.21 555.496 298.21C553.284 298.21 551.52 298.91 550.204 300.31C548.888 301.71 548.23 303.768 548.23 306.484V319H545.29V296.068H548.23V299.974C548.958 298.574 550.008 297.51 551.38 296.782C552.752 296.026 554.306 295.648 556.042 295.648ZM602.797 289.642L593.389 307.576V319H590.449V307.576L580.957 289.642H584.275L591.919 304.888L599.521 289.642H602.797ZM617.138 319.336C614.982 319.336 613.036 318.86 611.3 317.908C609.592 316.928 608.234 315.556 607.226 313.792C606.246 312 605.756 309.914 605.756 307.534C605.756 305.154 606.26 303.082 607.268 301.318C608.276 299.526 609.648 298.154 611.384 297.202C613.12 296.222 615.066 295.732 617.222 295.732C619.378 295.732 621.324 296.222 623.06 297.202C624.824 298.154 626.196 299.526 627.176 301.318C628.184 303.082 628.688 305.154 628.688 307.534C628.688 309.886 628.184 311.958 627.176 313.75C626.168 315.542 624.782 316.928 623.018 317.908C621.254 318.86 619.294 319.336 617.138 319.336ZM617.138 316.774C618.65 316.774 620.05 316.438 621.338 315.766C622.626 315.066 623.662 314.03 624.446 312.658C625.258 311.258 625.664 309.55 625.664 307.534C625.664 305.518 625.272 303.824 624.488 302.452C623.704 301.052 622.668 300.016 621.38 299.344C620.092 298.644 618.692 298.294 617.18 298.294C615.668 298.294 614.268 298.644 612.98 299.344C611.692 300.016 610.656 301.052 609.872 302.452C609.116 303.824 608.738 305.518 608.738 307.534C608.738 309.55 609.116 311.258 609.872 312.658C610.656 314.03 611.678 315.066 612.938 315.766C614.226 316.438 615.626 316.774 617.138 316.774ZM653.914 296.068V319H650.974V314.968C650.302 316.396 649.266 317.488 647.866 318.244C646.466 319 644.898 319.378 643.162 319.378C640.418 319.378 638.178 318.538 636.442 316.858C634.706 315.15 633.838 312.686 633.838 309.466V296.068H636.736V309.13C636.736 311.622 637.352 313.526 638.584 314.842C639.844 316.158 641.552 316.816 643.708 316.816C645.92 316.816 647.684 316.116 649 314.716C650.316 313.316 650.974 311.258 650.974 308.542V296.068H653.914ZM664.448 298.546V312.784C664.448 314.184 664.714 315.15 665.246 315.682C665.778 316.214 666.716 316.48 668.06 316.48H670.748V319H667.598C665.526 319 663.986 318.524 662.978 317.572C661.97 316.592 661.466 314.996 661.466 312.784V298.546H658.274V296.068H661.466V290.314H664.448V296.068H670.748V298.546H664.448ZM695.462 296.068V319H692.522V314.968C691.85 316.396 690.814 317.488 689.414 318.244C688.014 319 686.446 319.378 684.71 319.378C681.966 319.378 679.726 318.538 677.99 316.858C676.254 315.15 675.386 312.686 675.386 309.466V296.068H678.284V309.13C678.284 311.622 678.9 313.526 680.132 314.842C681.392 316.158 683.1 316.816 685.256 316.816C687.468 316.816 689.232 316.116 690.548 314.716C691.864 313.316 692.522 311.258 692.522 308.542V296.068H695.462ZM705.072 301.15C705.828 299.554 706.99 298.252 708.558 297.244C710.154 296.236 712.03 295.732 714.186 295.732C716.286 295.732 718.162 296.222 719.814 297.202C721.466 298.154 722.754 299.526 723.678 301.318C724.63 303.082 725.106 305.14 725.106 307.492C725.106 309.844 724.63 311.916 723.678 313.708C722.754 315.5 721.452 316.886 719.772 317.866C718.12 318.846 716.258 319.336 714.186 319.336C712.002 319.336 710.112 318.846 708.516 317.866C706.948 316.858 705.8 315.556 705.072 313.96V319H702.174V287.92H705.072V301.15ZM722.124 307.492C722.124 305.588 721.746 303.95 720.99 302.578C720.262 301.178 719.254 300.114 717.966 299.386C716.678 298.658 715.222 298.294 713.598 298.294C712.03 298.294 710.588 298.672 709.272 299.428C707.984 300.184 706.962 301.262 706.206 302.662C705.45 304.062 705.072 305.686 705.072 307.534C705.072 309.382 705.45 311.006 706.206 312.406C706.962 313.806 707.984 314.884 709.272 315.64C710.588 316.396 712.03 316.774 713.598 316.774C715.222 316.774 716.678 316.41 717.966 315.682C719.254 314.926 720.262 313.848 720.99 312.448C721.746 311.02 722.124 309.368 722.124 307.492ZM751.264 306.358C751.264 307.366 751.236 308.136 751.18 308.668H732.154C732.238 310.404 732.658 311.888 733.414 313.12C734.17 314.352 735.164 315.29 736.396 315.934C737.628 316.55 738.972 316.858 740.428 316.858C742.332 316.858 743.928 316.396 745.216 315.472C746.532 314.548 747.4 313.302 747.82 311.734H750.928C750.368 313.974 749.164 315.808 747.316 317.236C745.496 318.636 743.2 319.336 740.428 319.336C738.272 319.336 736.34 318.86 734.632 317.908C732.924 316.928 731.58 315.556 730.6 313.792C729.648 312 729.172 309.914 729.172 307.534C729.172 305.154 729.648 303.068 730.6 301.276C731.552 299.484 732.882 298.112 734.59 297.16C736.298 296.208 738.244 295.732 740.428 295.732C742.612 295.732 744.516 296.208 746.14 297.16C747.792 298.112 749.052 299.4 749.92 301.024C750.816 302.62 751.264 304.398 751.264 306.358ZM748.282 306.274C748.31 304.566 747.96 303.11 747.232 301.906C746.532 300.702 745.566 299.792 744.334 299.176C743.102 298.56 741.758 298.252 740.302 298.252C738.118 298.252 736.256 298.952 734.716 300.352C733.176 301.752 732.322 303.726 732.154 306.274H748.282Z" fill="#BDD3FF"/>
<rect x="65" y="380" width="146" height="220" rx="73" fill="#9AD9AE"/>
<path d="M122.386 452.071C122.386 449.11 123.199 447.499 127.683 446.732C130.727 446.21 134.631 446.145 138.272 446.732C141.148 447.196 143.569 449.291 143.569 452.071V461.841C143.569 464.707 141.219 467.054 138.272 467.054H127.683C124.089 467.054 121.06 470.05 121.06 473.436V478.124H117.419C114.339 478.124 112.546 475.953 111.793 472.915C110.777 468.833 110.82 466.402 111.793 462.493C112.636 459.083 115.332 457.284 118.412 457.284H132.979V455.98H122.386V452.071L122.386 452.071Z" fill="url(#paint0_linear)"/>
<path d="M143.569 483.337C143.569 486.298 140.94 487.798 138.273 488.546C134.259 489.674 131.038 489.501 127.683 488.546C124.882 487.748 122.387 486.118 122.387 483.337V473.567C122.387 470.755 124.784 468.354 127.683 468.354H138.273C141.8 468.354 144.895 465.374 144.895 461.841V457.284H148.866C151.95 457.284 153.401 459.524 154.162 462.493C155.222 466.617 155.269 469.701 154.162 472.915C153.091 476.038 151.946 478.124 148.866 478.124H132.98V479.429H143.569V483.337V483.337Z" fill="url(#paint1_linear)"/>
<path d="M125.034 451.423C125.034 450.342 125.921 449.467 127.02 449.467C128.114 449.467 129.005 450.341 129.005 451.423C129.005 452.501 128.114 453.376 127.02 453.376C125.921 453.376 125.034 452.501 125.034 451.423ZM136.949 483.985C136.949 482.907 137.84 482.033 138.935 482.033C140.033 482.033 140.92 482.907 140.92 483.985C140.92 485.067 140.034 485.941 138.935 485.941C137.84 485.941 136.949 485.067 136.949 483.985Z" fill="white"/>
<path d="M111.039 509.396C111.039 510.217 110.841 510.987 110.445 511.706C110.064 512.425 109.455 513.004 108.619 513.444C107.798 513.884 106.757 514.104 105.495 514.104H102.921V520H99.8412V504.644H105.495C106.683 504.644 107.695 504.849 108.531 505.26C109.367 505.671 109.991 506.235 110.401 506.954C110.827 507.673 111.039 508.487 111.039 509.396ZM105.363 511.618C106.214 511.618 106.845 511.427 107.255 511.046C107.666 510.65 107.871 510.1 107.871 509.396C107.871 507.9 107.035 507.152 105.363 507.152H102.921V511.618H105.363ZM124.886 507.812L117.34 525.764H114.062L116.702 519.692L111.818 507.812H115.272L118.418 516.326L121.608 507.812H124.886ZM130.132 510.342V516.238C130.132 516.649 130.228 516.949 130.418 517.14C130.624 517.316 130.961 517.404 131.43 517.404H132.86V520H130.924C128.328 520 127.03 518.739 127.03 516.216V510.342H125.578V507.812H127.03V504.798H130.132V507.812H132.86V510.342H130.132ZM141.94 507.636C142.864 507.636 143.685 507.841 144.404 508.252C145.122 508.648 145.68 509.242 146.076 510.034C146.486 510.811 146.692 511.75 146.692 512.85V520H143.612V513.268C143.612 512.3 143.37 511.559 142.886 511.046C142.402 510.518 141.742 510.254 140.906 510.254C140.055 510.254 139.38 510.518 138.882 511.046C138.398 511.559 138.156 512.3 138.156 513.268V520H135.076V503.72H138.156V509.33C138.552 508.802 139.08 508.391 139.74 508.098C140.4 507.79 141.133 507.636 141.94 507.636ZM155.033 520.198C153.859 520.198 152.803 519.941 151.865 519.428C150.926 518.9 150.185 518.159 149.643 517.206C149.115 516.253 148.851 515.153 148.851 513.906C148.851 512.659 149.122 511.559 149.665 510.606C150.222 509.653 150.977 508.919 151.931 508.406C152.884 507.878 153.947 507.614 155.121 507.614C156.294 507.614 157.357 507.878 158.311 508.406C159.264 508.919 160.012 509.653 160.555 510.606C161.112 511.559 161.391 512.659 161.391 513.906C161.391 515.153 161.105 516.253 160.533 517.206C159.975 518.159 159.213 518.9 158.245 519.428C157.291 519.941 156.221 520.198 155.033 520.198ZM155.033 517.514C155.59 517.514 156.111 517.382 156.595 517.118C157.093 516.839 157.489 516.429 157.783 515.886C158.076 515.343 158.223 514.683 158.223 513.906C158.223 512.747 157.915 511.86 157.299 511.244C156.697 510.613 155.957 510.298 155.077 510.298C154.197 510.298 153.456 510.613 152.855 511.244C152.268 511.86 151.975 512.747 151.975 513.906C151.975 515.065 152.261 515.959 152.833 516.59C153.419 517.206 154.153 517.514 155.033 517.514ZM170.404 507.636C171.856 507.636 173.029 508.098 173.924 509.022C174.819 509.931 175.266 511.207 175.266 512.85V520H172.186V513.268C172.186 512.3 171.944 511.559 171.46 511.046C170.976 510.518 170.316 510.254 169.48 510.254C168.629 510.254 167.955 510.518 167.456 511.046C166.972 511.559 166.73 512.3 166.73 513.268V520H163.65V507.812H166.73V509.33C167.141 508.802 167.661 508.391 168.292 508.098C168.937 507.79 169.641 507.636 170.404 507.636Z" fill="#FEFEFE"/>
<rect x="327" y="380" width="146" height="220" rx="73" fill="#252C49"/>
<path d="M371.008 509.264C370.656 508.619 370.172 508.127 369.556 507.79C368.94 507.453 368.221 507.284 367.4 507.284C366.491 507.284 365.684 507.489 364.98 507.9C364.276 508.311 363.726 508.897 363.33 509.66C362.934 510.423 362.736 511.303 362.736 512.3C362.736 513.327 362.934 514.221 363.33 514.984C363.741 515.747 364.305 516.333 365.024 516.744C365.743 517.155 366.579 517.36 367.532 517.36C368.705 517.36 369.666 517.052 370.414 516.436C371.162 515.805 371.653 514.933 371.888 513.818H366.608V511.464H374.924V514.148C374.719 515.219 374.279 516.209 373.604 517.118C372.929 518.027 372.057 518.761 370.986 519.318C369.93 519.861 368.742 520.132 367.422 520.132C365.941 520.132 364.599 519.802 363.396 519.142C362.208 518.467 361.269 517.536 360.58 516.348C359.905 515.16 359.568 513.811 359.568 512.3C359.568 510.789 359.905 509.44 360.58 508.252C361.269 507.049 362.208 506.118 363.396 505.458C364.599 504.783 365.933 504.446 367.4 504.446C369.131 504.446 370.634 504.871 371.91 505.722C373.186 506.558 374.066 507.739 374.55 509.264H371.008ZM382.615 520.198C381.441 520.198 380.385 519.941 379.447 519.428C378.508 518.9 377.767 518.159 377.225 517.206C376.697 516.253 376.433 515.153 376.433 513.906C376.433 512.659 376.704 511.559 377.247 510.606C377.804 509.653 378.559 508.919 379.513 508.406C380.466 507.878 381.529 507.614 382.703 507.614C383.876 507.614 384.939 507.878 385.893 508.406C386.846 508.919 387.594 509.653 388.137 510.606C388.694 511.559 388.973 512.659 388.973 513.906C388.973 515.153 388.687 516.253 388.115 517.206C387.557 518.159 386.795 518.9 385.827 519.428C384.873 519.941 383.803 520.198 382.615 520.198ZM382.615 517.514C383.172 517.514 383.693 517.382 384.177 517.118C384.675 516.839 385.071 516.429 385.365 515.886C385.658 515.343 385.805 514.683 385.805 513.906C385.805 512.747 385.497 511.86 384.881 511.244C384.279 510.613 383.539 510.298 382.659 510.298C381.779 510.298 381.038 510.613 380.437 511.244C379.85 511.86 379.557 512.747 379.557 513.906C379.557 515.065 379.843 515.959 380.415 516.59C381.001 517.206 381.735 517.514 382.615 517.514ZM394.312 503.72V520H391.232V503.72H394.312ZM396.563 513.862C396.563 512.63 396.805 511.537 397.289 510.584C397.788 509.631 398.455 508.897 399.291 508.384C400.142 507.871 401.088 507.614 402.129 507.614C403.038 507.614 403.83 507.797 404.505 508.164C405.194 508.531 405.744 508.993 406.155 509.55V507.812H409.257V520H406.155V518.218C405.759 518.79 405.209 519.267 404.505 519.648C403.816 520.015 403.016 520.198 402.107 520.198C401.08 520.198 400.142 519.934 399.291 519.406C398.455 518.878 397.788 518.137 397.289 517.184C396.805 516.216 396.563 515.109 396.563 513.862ZM406.155 513.906C406.155 513.158 406.008 512.52 405.715 511.992C405.422 511.449 405.026 511.039 404.527 510.76C404.028 510.467 403.493 510.32 402.921 510.32C402.349 510.32 401.821 510.459 401.337 510.738C400.853 511.017 400.457 511.427 400.149 511.97C399.856 512.498 399.709 513.129 399.709 513.862C399.709 514.595 399.856 515.241 400.149 515.798C400.457 516.341 400.853 516.759 401.337 517.052C401.836 517.345 402.364 517.492 402.921 517.492C403.493 517.492 404.028 517.353 404.527 517.074C405.026 516.781 405.422 516.37 405.715 515.842C406.008 515.299 406.155 514.654 406.155 513.906ZM419.019 507.636C420.471 507.636 421.644 508.098 422.539 509.022C423.434 509.931 423.881 511.207 423.881 512.85V520H420.801V513.268C420.801 512.3 420.559 511.559 420.075 511.046C419.591 510.518 418.931 510.254 418.095 510.254C417.244 510.254 416.57 510.518 416.071 511.046C415.587 511.559 415.345 512.3 415.345 513.268V520H412.265V507.812H415.345V509.33C415.756 508.802 416.276 508.391 416.907 508.098C417.552 507.79 418.256 507.636 419.019 507.636ZM431.584 507.614C432.493 507.614 433.293 507.797 433.982 508.164C434.671 508.516 435.214 508.978 435.61 509.55V507.812H438.712V520.088C438.712 521.217 438.485 522.222 438.03 523.102C437.575 523.997 436.893 524.701 435.984 525.214C435.075 525.742 433.975 526.006 432.684 526.006C430.953 526.006 429.531 525.603 428.416 524.796C427.316 523.989 426.693 522.889 426.546 521.496H429.604C429.765 522.053 430.11 522.493 430.638 522.816C431.181 523.153 431.833 523.322 432.596 523.322C433.491 523.322 434.217 523.051 434.774 522.508C435.331 521.98 435.61 521.173 435.61 520.088V518.196C435.214 518.768 434.664 519.245 433.96 519.626C433.271 520.007 432.479 520.198 431.584 520.198C430.557 520.198 429.619 519.934 428.768 519.406C427.917 518.878 427.243 518.137 426.744 517.184C426.26 516.216 426.018 515.109 426.018 513.862C426.018 512.63 426.26 511.537 426.744 510.584C427.243 509.631 427.91 508.897 428.746 508.384C429.597 507.871 430.543 507.614 431.584 507.614ZM435.61 513.906C435.61 513.158 435.463 512.52 435.17 511.992C434.877 511.449 434.481 511.039 433.982 510.76C433.483 510.467 432.948 510.32 432.376 510.32C431.804 510.32 431.276 510.459 430.792 510.738C430.308 511.017 429.912 511.427 429.604 511.97C429.311 512.498 429.164 513.129 429.164 513.862C429.164 514.595 429.311 515.241 429.604 515.798C429.912 516.341 430.308 516.759 430.792 517.052C431.291 517.345 431.819 517.492 432.376 517.492C432.948 517.492 433.483 517.353 433.982 517.074C434.481 516.781 434.877 516.37 435.17 515.842C435.463 515.299 435.61 514.654 435.61 513.906Z" fill="#FEFEFE"/>
<g clip-path="url(#clip0)">
<path d="M360.977 456.623C360.796 456.623 360.752 456.532 360.842 456.396L361.786 455.169C361.877 455.033 362.101 454.942 362.281 454.942H378.348C378.529 454.942 378.573 455.079 378.483 455.215L377.718 456.396C377.627 456.533 377.403 456.669 377.268 456.669L360.976 456.623H360.977ZM354.181 460.804C354.001 460.804 353.956 460.713 354.046 460.577L354.991 459.35C355.081 459.214 355.306 459.123 355.486 459.123H376.008C376.189 459.123 376.278 459.259 376.233 459.396L375.873 460.486C375.828 460.668 375.648 460.759 375.468 460.759L354.181 460.804ZM365.072 464.985C364.892 464.985 364.847 464.848 364.937 464.712L365.567 463.576C365.658 463.44 365.837 463.303 366.017 463.303H375.018C375.199 463.303 375.288 463.44 375.288 463.621L375.198 464.711C375.198 464.894 375.017 465.029 374.883 465.029L365.072 464.984L365.072 464.985ZM411.789 455.805L404.226 457.805C403.551 457.987 403.506 458.032 402.921 457.35C402.246 456.577 401.751 456.074 400.806 455.624C397.971 454.215 395.225 454.624 392.66 456.305C389.6 458.305 388.025 461.259 388.069 464.94C388.114 468.574 390.59 471.574 394.145 472.074C397.206 472.484 399.771 471.393 401.796 469.075C402.202 468.576 402.562 468.03 403.011 467.394H394.326C393.381 467.394 393.156 466.803 393.471 466.03C394.056 464.622 395.136 462.259 395.766 461.077C395.901 460.804 396.216 460.35 396.891 460.35H413.273C413.183 461.577 413.183 462.804 413.003 464.031C412.508 467.303 411.293 470.302 409.313 472.938C406.073 477.254 401.842 479.936 396.486 480.663C392.076 481.254 387.98 480.391 384.379 477.664C381.045 475.119 379.159 471.756 378.664 467.575C378.079 462.622 379.519 458.169 382.489 454.261C385.685 450.035 389.915 447.354 395.091 446.399C399.321 445.626 403.372 446.127 407.017 448.626C409.403 450.216 411.113 452.398 412.238 455.033C412.508 455.443 412.329 455.67 411.789 455.806V455.805Z" fill="#FEFEFE"/>
<path d="M426.684 480.935C422.588 480.844 418.852 479.659 415.702 476.935C413.047 474.618 411.381 471.664 410.842 468.165C410.032 463.03 411.427 458.485 414.487 454.441C417.773 450.079 421.733 447.807 427.089 446.853C431.68 446.034 436 446.489 439.916 449.17C443.471 451.624 445.676 454.942 446.262 459.304C447.027 465.439 445.271 470.437 441.086 474.709C438.116 477.753 434.47 479.662 430.285 480.525C429.07 480.753 427.854 480.798 426.685 480.935L426.684 480.935ZM437.395 462.576C437.35 461.986 437.35 461.531 437.26 461.077C436.45 456.578 432.354 454.033 428.079 455.033C423.893 455.987 421.193 458.668 420.203 462.94C419.393 466.485 421.103 470.075 424.343 471.529C426.819 472.619 429.294 472.483 431.679 471.256C435.235 469.397 437.17 466.485 437.395 462.576H437.395Z" fill="#FEFEFE"/>
</g>
<rect x="589" y="380" width="146" height="220" rx="73" fill="#252C49"/>
<g clip-path="url(#clip1)">
<path d="M647.146 441H638.004L660.859 480.964L683.714 441H666.23L660.859 450.267L655.602 441H647.146Z" fill="#41B883"/>
<path d="M683.714 441L660.859 480.964L638.004 441H647.146L660.859 464.978L674.686 441H683.714Z" fill="#41B883"/>
<path d="M674.687 441L660.859 465.094L647.146 441H655.603L660.859 450.267L666.23 441H674.687Z" fill="#35495E"/>
</g>
<path d="M653.93 504.644L648.298 520H644.558L638.926 504.644H642.226L646.45 516.854L650.652 504.644H653.93ZM667.283 507.812V520H664.181V518.46C663.785 518.988 663.264 519.406 662.619 519.714C661.988 520.007 661.299 520.154 660.551 520.154C659.597 520.154 658.754 519.956 658.021 519.56C657.287 519.149 656.708 518.555 656.283 517.778C655.872 516.986 655.667 516.047 655.667 514.962V507.812H658.747V514.522C658.747 515.49 658.989 516.238 659.473 516.766C659.957 517.279 660.617 517.536 661.453 517.536C662.303 517.536 662.971 517.279 663.455 516.766C663.939 516.238 664.181 515.49 664.181 514.522V507.812H667.283ZM681.652 513.642C681.652 514.082 681.622 514.478 681.564 514.83H672.654C672.727 515.71 673.035 516.399 673.578 516.898C674.12 517.397 674.788 517.646 675.58 517.646C676.724 517.646 677.538 517.155 678.022 516.172H681.344C680.992 517.345 680.317 518.313 679.32 519.076C678.322 519.824 677.098 520.198 675.646 520.198C674.472 520.198 673.416 519.941 672.478 519.428C671.554 518.9 670.828 518.159 670.3 517.206C669.786 516.253 669.53 515.153 669.53 513.906C669.53 512.645 669.786 511.537 670.3 510.584C670.813 509.631 671.532 508.897 672.456 508.384C673.38 507.871 674.443 507.614 675.646 507.614C676.804 507.614 677.838 507.863 678.748 508.362C679.672 508.861 680.383 509.572 680.882 510.496C681.395 511.405 681.652 512.454 681.652 513.642ZM678.462 512.762C678.447 511.97 678.161 511.339 677.604 510.87C677.046 510.386 676.364 510.144 675.558 510.144C674.795 510.144 674.15 510.379 673.622 510.848C673.108 511.303 672.793 511.941 672.676 512.762H678.462Z" fill="#FEFEFE"/>
<rect x="851" y="380" width="146" height="220" rx="73" fill="#252C49"/>
<g clip-path="url(#clip2)">
<path d="M924 464.539C925.972 464.539 927.572 462.94 927.572 460.967C927.572 458.994 925.972 457.395 924 457.395C922.027 457.395 920.428 458.994 920.428 460.967C920.428 462.94 922.027 464.539 924 464.539Z" fill="#00D8FF"/>
<path fill-rule="evenodd" clip-rule="evenodd" d="M924 453.705C928.796 453.705 933.251 454.393 936.61 455.549C940.657 456.943 943.146 459.055 943.146 460.967C943.146 462.96 940.508 465.204 936.162 466.644C932.876 467.732 928.552 468.301 924 468.301C919.332 468.301 914.913 467.767 911.59 466.632C907.386 465.195 904.854 462.922 904.854 460.967C904.854 459.07 907.229 456.974 911.22 455.583C914.592 454.408 919.157 453.705 923.999 453.705H924Z" stroke="#00D8FF" stroke-width="2.73408"/>
<path fill-rule="evenodd" clip-rule="evenodd" d="M917.678 457.357C920.074 453.202 922.896 449.687 925.576 447.354C928.805 444.545 931.877 443.444 933.534 444.399C935.26 445.395 935.887 448.8 934.963 453.285C934.265 456.675 932.596 460.705 930.322 464.648C927.99 468.692 925.32 472.254 922.677 474.565C919.332 477.489 916.098 478.547 914.405 477.57C912.761 476.623 912.133 473.517 912.921 469.365C913.587 465.857 915.259 461.552 917.677 457.357L917.678 457.357Z" stroke="#00D8FF" stroke-width="2.73408"/>
<path fill-rule="evenodd" clip-rule="evenodd" d="M917.684 464.659C915.281 460.509 913.645 456.308 912.963 452.822C912.141 448.621 912.722 445.409 914.377 444.451C916.102 443.452 919.365 444.611 922.789 447.651C925.377 449.949 928.035 453.406 930.316 457.346C932.654 461.386 934.407 465.478 935.089 468.922C935.952 473.28 935.253 476.61 933.561 477.59C931.92 478.54 928.916 477.534 925.712 474.777C923.006 472.449 920.11 468.85 917.684 464.659V464.659Z" stroke="#00D8FF" stroke-width="2.73408"/>
</g>
<path d="M900.765 520L897.377 514.016H895.925V520H892.845V504.644H898.609C899.797 504.644 900.809 504.857 901.645 505.282C902.481 505.693 903.104 506.257 903.515 506.976C903.94 507.68 904.153 508.472 904.153 509.352C904.153 510.364 903.86 511.281 903.273 512.102C902.686 512.909 901.814 513.466 900.655 513.774L904.329 520H900.765ZM895.925 511.706H898.499C899.335 511.706 899.958 511.508 900.369 511.112C900.78 510.701 900.985 510.137 900.985 509.418C900.985 508.714 900.78 508.171 900.369 507.79C899.958 507.394 899.335 507.196 898.499 507.196H895.925V511.706ZM918.269 513.642C918.269 514.082 918.24 514.478 918.181 514.83H909.271C909.344 515.71 909.652 516.399 910.195 516.898C910.738 517.397 911.405 517.646 912.197 517.646C913.341 517.646 914.155 517.155 914.639 516.172H917.961C917.609 517.345 916.934 518.313 915.937 519.076C914.94 519.824 913.715 520.198 912.263 520.198C911.09 520.198 910.034 519.941 909.095 519.428C908.171 518.9 907.445 518.159 906.917 517.206C906.404 516.253 906.147 515.153 906.147 513.906C906.147 512.645 906.404 511.537 906.917 510.584C907.43 509.631 908.149 508.897 909.073 508.384C909.997 507.871 911.06 507.614 912.263 507.614C913.422 507.614 914.456 507.863 915.365 508.362C916.289 508.861 917 509.572 917.499 510.496C918.012 511.405 918.269 512.454 918.269 513.642ZM915.079 512.762C915.064 511.97 914.778 511.339 914.221 510.87C913.664 510.386 912.982 510.144 912.175 510.144C911.412 510.144 910.767 510.379 910.239 510.848C909.726 511.303 909.41 511.941 909.293 512.762H915.079ZM919.725 513.862C919.725 512.63 919.967 511.537 920.451 510.584C920.95 509.631 921.617 508.897 922.453 508.384C923.304 507.871 924.25 507.614 925.291 507.614C926.2 507.614 926.992 507.797 927.667 508.164C928.356 508.531 928.906 508.993 929.317 509.55V507.812H932.419V520H929.317V518.218C928.921 518.79 928.371 519.267 927.667 519.648C926.978 520.015 926.178 520.198 925.269 520.198C924.242 520.198 923.304 519.934 922.453 519.406C921.617 518.878 920.95 518.137 920.451 517.184C919.967 516.216 919.725 515.109 919.725 513.862ZM929.317 513.906C929.317 513.158 929.17 512.52 928.877 511.992C928.584 511.449 928.188 511.039 927.689 510.76C927.19 510.467 926.655 510.32 926.083 510.32C925.511 510.32 924.983 510.459 924.499 510.738C924.015 511.017 923.619 511.427 923.311 511.97C923.018 512.498 922.871 513.129 922.871 513.862C922.871 514.595 923.018 515.241 923.311 515.798C923.619 516.341 924.015 516.759 924.499 517.052C924.998 517.345 925.526 517.492 926.083 517.492C926.655 517.492 927.19 517.353 927.689 517.074C928.188 516.781 928.584 516.37 928.877 515.842C929.17 515.299 929.317 514.654 929.317 513.906ZM934.635 513.906C934.635 512.645 934.892 511.545 935.405 510.606C935.919 509.653 936.63 508.919 937.539 508.406C938.449 507.878 939.49 507.614 940.663 507.614C942.174 507.614 943.421 507.995 944.403 508.758C945.401 509.506 946.068 510.562 946.405 511.926H943.083C942.907 511.398 942.607 510.987 942.181 510.694C941.771 510.386 941.257 510.232 940.641 510.232C939.761 510.232 939.065 510.555 938.551 511.2C938.038 511.831 937.781 512.733 937.781 513.906C937.781 515.065 938.038 515.967 938.551 516.612C939.065 517.243 939.761 517.558 940.641 517.558C941.888 517.558 942.702 517.001 943.083 515.886H946.405C946.068 517.206 945.401 518.255 944.403 519.032C943.406 519.809 942.159 520.198 940.663 520.198C939.49 520.198 938.449 519.941 937.539 519.428C936.63 518.9 935.919 518.167 935.405 517.228C934.892 516.275 934.635 515.167 934.635 513.906ZM952.248 510.342V516.238C952.248 516.649 952.343 516.949 952.534 517.14C952.739 517.316 953.076 517.404 953.546 517.404H954.976V520H953.04C950.444 520 949.146 518.739 949.146 516.216V510.342H947.694V507.812H949.146V504.798H952.248V507.812H954.976V510.342H952.248Z" fill="#FEFEFE"/>
<defs>
<linearGradient id="paint0_linear" x1="143.569" y1="458.681" x2="111.047" y2="458.417" gradientUnits="userSpaceOnUse">
<stop stop-color="#366A96"/>
<stop offset="1" stop-color="#3679B0"/>
</linearGradient>
<linearGradient id="paint1_linear" x1="154.974" y1="473.306" x2="90.5969" y2="473.306" gradientUnits="userSpaceOnUse">
<stop stop-color="#FFC836"/>
<stop offset="1" stop-color="#FFE873"/>
</linearGradient>
<clipPath id="clip0">
<rect width="92.4359" height="35" fill="white" transform="translate(354 446)"/>
</clipPath>
<clipPath id="clip1">
<rect width="45.7143" height="40" fill="white" transform="matrix(-1 0 0 1 683.714 441)"/>
</clipPath>
<clipPath id="clip2">
<rect width="40" height="40" fill="white" transform="translate(904 441)"/>
</clipPath>
</defs>
</svg>
